<?xml version="1.0" standalone="no"?>
<!DOCTYPE svg PUBLIC "-//W3C//DTD SVG 20010904//EN"
 "http://www.w3.org/TR/2001/REC-SVG-20010904/DTD/svg10.dtd">
<svg version="1.0" xmlns="http://www.w3.org/2000/svg"
 width="310.000000pt" height="335.000000pt" viewBox="0 0 310.000000 335.000000"
 preserveAspectRatio="xMidYMid meet">

<g transform="translate(0.000000,335.000000) scale(0.100000,-0.100000)"
fill="#000000" stroke="none">
<path d="M2373 3117 c-38 -9 -43 -13 -43 -38 0 -48 73 -91 116 -68 21 11 24
20 24 66 0 51 -1 53 -27 52 -16 -1 -47 -6 -70 -12z"/>
<path d="M1423 2633 c-29 -33 -51 -73 -86 -163 -26 -66 -38 -191 -39 -406 l0
-81 -52 -54 c-157 -166 -231 -266 -268 -362 -16 -41 -17 -58 -8 -104 13 -71
48 -149 89 -195 17 -20 31 -39 31 -43 0 -3 -18 -37 -40 -73 -49 -84 -102 -214
-142 -352 -66 -227 -29 -430 103 -562 69 -70 105 -86 201 -94 113 -9 218 21
333 96 17 11 39 24 50 29 55 26 315 307 315 341 0 7 11 25 25 42 14 16 25 35
25 42 0 7 8 20 19 30 10 9 26 36 36 59 9 23 21 49 26 57 5 8 12 22 15 30 4 8
20 43 36 78 16 35 35 87 43 115 8 29 21 75 31 102 9 28 17 57 19 65 1 8 5 22
8 30 13 34 70 295 97 449 16 90 37 186 46 213 l16 50 127 -4 c149 -5 217 -27
287 -95 51 -49 60 -40 12 12 -74 82 -159 117 -328 135 -58 6 -106 13 -107 14
-1 1 4 56 13 122 8 65 18 185 21 265 5 140 4 148 -16 168 -54 54 -177 -8 -130
-66 21 -25 24 -216 4 -373 -9 -74 -21 -140 -26 -147 -6 -6 -36 -17 -67 -23
-65 -12 -127 -37 -143 -56 -6 -7 -24 -16 -40 -19 -17 -4 -42 -13 -57 -21 -15
-8 -37 -14 -49 -14 -13 0 -32 -9 -43 -20 -11 -11 -24 -19 -28 -17 -13 4 -133
-70 -231 -143 -52 -39 -95 -69 -97 -67 -1 1 -13 59 -25 128 l-22 126 47 44
c27 24 67 57 89 73 23 16 86 63 139 103 54 40 100 73 103 73 15 0 164 108 218
158 50 46 56 54 33 48 l-27 -7 21 23 c11 12 16 24 10 26 -5 2 -10 8 -10 13 0
5 8 4 18 -2 15 -10 23 -7 45 15 15 15 25 31 23 35 -3 4 5 14 18 20 19 11 56
67 56 86 0 22 -99 -46 -180 -123 -14 -13 -47 -39 -75 -57 -27 -18 -59 -42 -69
-54 -11 -11 -25 -21 -32 -21 -7 0 -34 -17 -61 -38 -26 -21 -100 -73 -163 -117
-63 -43 -117 -81 -120 -85 -3 -3 -22 -16 -43 -29 -33 -20 -38 -21 -43 -6 -11
29 4 247 20 301 22 73 63 158 84 176 9 9 26 18 37 20 49 10 -15 108 -71 108
-14 0 -36 -11 -51 -27z m577 -277 c0 -11 -19 -15 -25 -6 -3 5 1 10 9 10 9 0
16 -2 16 -4z m-80 -22 c0 -3 -5 -14 -10 -25 -13 -23 -36 -25 -44 -4 -4 10 1
15 14 15 11 0 20 5 20 10 0 6 5 10 10 10 6 0 10 -3 10 -6z m-70 -79 c-7 -8
-17 -15 -22 -15 -11 0 14 29 26 30 5 0 3 -7 -4 -15z m-70 -15 c0 -5 -2 -10 -4
-10 -2 0 -12 -3 -20 -6 -12 -5 -15 -2 -10 10 7 17 34 22 34 6z m-50 -39 c0
-11 -39 -51 -70 -74 -92 -64 -174 -117 -182 -117 -14 0 2 43 21 57 9 7 37 27
64 45 26 18 66 48 88 66 39 30 79 42 79 23z m-286 -208 c9 4 16 2 16 -4 0 -5
-7 -12 -16 -16 -15 -6 -34 11 -34 32 0 6 4 4 9 -4 5 -8 16 -11 25 -8z m747
-150 c-75 -470 -177 -809 -309 -1027 -23 -39 -42 -77 -42 -86 0 -9 -10 -25
-21 -36 -12 -10 -45 -48 -74 -84 -181 -225 -361 -339 -550 -348 -82 -3 -93 -2
-124 20 -44 29 -72 76 -84 142 -16 79 -13 116 18 306 9 58 19 123 22 145 3 22
12 47 20 56 7 9 13 20 12 25 -4 25 3 46 22 62 11 9 36 44 56 77 48 83 81 125
98 125 16 0 73 30 118 62 32 23 82 116 92 172 5 24 21 51 45 74 42 42 155 132
165 132 3 0 27 17 53 38 62 49 67 52 207 122 66 33 124 65 129 70 6 6 22 10
37 10 15 0 32 6 39 14 13 17 60 25 74 14 5 -4 4 -39 -3 -85z m-839 -79 c10
-55 9 -162 -1 -207 -6 -25 -28 -58 -63 -95 -29 -31 -60 -67 -68 -80 -25 -39
-130 -51 -143 -18 -9 22 21 143 47 194 45 89 187 257 211 249 5 -2 13 -21 17
-43z"/>
<path d="M2080 2405 c-8 -9 -8 -15 -2 -15 12 0 26 19 19 26 -2 2 -10 -2 -17
-11z"/>
</g>
</svg>
